<svg width="829" height="172" viewBox="0 0 829 172" fill="none" xmlns="http://www.w3.org/2000/svg">
<g clip-path="url(#clip0)">
<path d="M78 151C42.1015 151 13 121.899 13 86C13 50.1015 42.1015 21 78 21C113.899 21 143 50.1015 143 86C143 95.0513 141.15 103.67 137.807 111.5" stroke="url(#paint0_linear)" stroke-width="25" stroke-linecap="round"/>
<circle cx="113.5" cy="140.5" r="12.5" fill="url(#paint1_linear)"/>
<g clip-path="url(#clip1)">
<path fill-rule="evenodd" clip-rule="evenodd" d="M235.576 44.1644C228.59 44.1644 223 38.5723 223 31.5822C223 24.5921 228.59 19 235.576 19C242.563 19 248.153 24.5921 248.153 31.5822C248.153 38.5723 242.563 44.1644 235.576 44.1644ZM227.192 136.434V58.1446H243.961V136.434H227.192ZM306.959 56.7466C327.046 56.7466 338.051 70.2026 338.051 95.1922V136.434H321.282V95.1922C321.282 80.3382 316.915 72.1248 303.815 72.1248C293.509 72.1248 284.95 81.3867 284.95 95.8912V136.434H268.182V58.1446H284.95V67.9308C287.57 62.8629 295.081 56.7466 306.959 56.7466ZM395.809 122.454C402.272 122.454 408.909 120.182 413.276 115.464L422.359 128.046C415.372 134.162 406.115 137.832 395.809 137.832C373.276 137.832 355.285 119.832 355.285 97.2892C355.285 75.0956 373.276 56.7466 395.809 56.7466C406.115 56.7466 415.372 60.4164 422.359 66.5328L413.276 79.115C408.909 74.3966 402.272 72.1248 395.809 72.1248C382.883 72.1248 372.054 83.6585 372.054 97.2892C372.054 110.92 382.883 122.454 395.809 122.454ZM474.528 56.7466C496.711 56.7466 515.052 75.0956 515.052 97.2892C515.052 119.832 496.711 137.832 474.528 137.832C451.995 137.832 434.004 119.832 434.004 97.2892C434.004 75.0956 451.995 56.7466 474.528 56.7466ZM474.528 122.454C487.454 122.454 498.283 110.92 498.283 97.2892C498.283 83.6585 487.454 72.1248 474.528 72.1248C461.602 72.1248 450.772 83.6585 450.772 97.2892C450.772 110.92 461.602 122.454 474.528 122.454ZM619.971 56.7466C638.661 56.7466 649.666 70.2026 649.666 95.1922V136.434H632.897V95.1922C632.897 80.3382 628.53 72.1248 616.827 72.1248C606.522 72.1248 599.36 81.3867 599.36 95.8912V136.434H582.592V95.1922C582.592 80.3382 578.225 72.1248 566.522 72.1248C556.216 72.1248 549.055 81.3867 549.055 95.8912V136.434H532.286V58.1446H549.055V67.9308C553.072 62.3387 557.963 56.7466 569.666 56.7466C580.67 56.7466 588.705 61.1154 593.771 70.0278C601.456 60.4164 608.094 56.7466 619.971 56.7466ZM707.424 122.454C715.634 122.454 721.922 118.26 726.813 113.366L736.42 125.599C728.909 133.114 718.778 137.832 707.424 137.832C684.891 137.832 666.9 119.832 666.9 97.2892C666.9 75.0956 684.891 56.7466 707.424 56.7466C724.891 56.7466 737.992 67.4065 742.358 84.3575L690.481 114.415C693.8 119.133 700.612 122.454 707.424 122.454ZM707.424 72.1248C694.498 72.1248 683.669 84.1828 683.669 97.2892C683.669 98.862 683.843 100.26 684.018 101.833L722.795 79.4645C720.175 75.9694 715.808 72.1248 707.424 72.1248ZM794.527 122.454C802.737 122.454 809.025 118.26 813.916 113.366L823.523 125.599C816.012 133.114 805.881 137.832 794.527 137.832C771.994 137.832 754.003 119.832 754.003 97.2892C754.003 75.0956 771.994 56.7466 794.527 56.7466C811.994 56.7466 825.095 67.4065 829.462 84.3575L777.584 114.415C780.903 119.133 787.715 122.454 794.527 122.454ZM794.527 72.1248C781.601 72.1248 770.772 84.1828 770.772 97.2892C770.772 98.862 770.946 100.26 771.121 101.833L809.898 79.4645C807.278 75.9694 802.911 72.1248 794.527 72.1248Z" fill="#001737"/>
</g>
</g>
<defs>
<linearGradient id="paint0_linear" x1="105.243" y1="151" x2="105.243" y2="21" gradientUnits="userSpaceOnUse">
<stop stop-color="#005FFF"/>
<stop offset="1" stop-color="#498DFF"/>
</linearGradient>
<linearGradient id="paint1_linear" x1="118.739" y1="153" x2="118.739" y2="128" gradientUnits="userSpaceOnUse">
<stop stop-color="#005FFF"/>
<stop offset="1" stop-color="#498DFF"/>
</linearGradient>
<clipPath id="clip0">
<rect width="829" height="172" fill="white"/>
</clipPath>
<clipPath id="clip1">
<rect width="606.462" height="120" fill="white" transform="translate(223 19)"/>
</clipPath>
</defs>
</svg>
